# Blender 3.4.1
# www.blender.org
mtllib ДЛЯ ТУРЕЛЕК КАМЕНЬN3.mtl
o Икосфера
v -0.000007 -1.066401 -0.000000
v 3.438366 -0.333400 2.498094
v -1.313321 -0.333401 4.042038
v -4.250059 -0.333381 0.000000
v -1.313321 -0.333401 -8.400122
v 3.438366 -0.333400 -6.856177
v 0.098626 0.480920 1.663517
v -2.475338 0.520747 0.857145
v -1.930616 0.412831 -5.573135
v 0.586561 0.324880 -6.479122
v 1.633291 0.326574 0.298155
v 0.000001 0.847842 -0.000000
v -1.327270 -1.075029 4.084964
v 3.474881 -1.075027 2.524625
v 1.249071 -0.706495 3.844188
v 4.042026 -0.706487 -4.358084
v 3.474881 -1.075027 -6.882709
v -4.295222 -1.075007 -0.000000
v -3.270081 -0.706488 2.375840
v -1.327270 -1.075029 -8.443048
v -3.270081 -0.706488 -6.733924
v 1.249071 -0.706495 -8.202272
v 2.124200 0.167332 1.064269
v 2.422187 0.167332 -4.879676
v 0.037193 0.050062 2.732494
v 1.181459 0.340803 2.695432
v -3.143703 0.244199 0.667270
v -1.277093 0.501050 2.306178
v -1.514156 0.223213 -7.032032
v -2.513192 0.350617 -5.717284
v 1.764148 0.263128 -6.150889
v -0.000116 0.170850 -7.031090
v 1.324489 0.305148 1.299952
v -0.368506 0.443940 1.664867
v -2.289940 0.525736 -2.841054
v -0.262869 0.525738 -6.354423
v 1.358547 0.776491 -5.237377
v 0.486922 0.851007 1.498613
v 1.575747 0.850999 -0.000000
v -1.274799 0.851006 0.926186
v -1.274799 0.851006 -5.284270
v 0.486922 0.851007 -5.856697
vn -0.0008 -1.0000 -0.0024
vn 0.9950 0.0520 0.0848
vn 0.0020 -1.0000 -0.0015
vn 0.0020 -1.0000 0.0007
vn -0.0003 -1.0000 0.0011
vn 0.3728 0.9278 -0.0177
vn 0.1625 0.8891 0.4279
vn -0.5926 0.7217 0.3578
vn -0.4817 0.7848 -0.3900
vn 0.1257 0.8844 -0.4496
vn 0.2909 0.9544 0.0666
vn 0.1650 0.8876 0.4301
vn -0.4486 0.8933 -0.0294
vn 0.0323 0.9274 -0.3726
vn 0.3024 0.9494 -0.0850
vn 0.2972 0.1108 0.9484
vn -0.2321 0.7031 0.6722
vn -0.5206 0.8475 -0.1035
vn 0.0883 0.7677 -0.6347
vn 0.9955 0.0851 -0.0425
vn -0.0020 1.0000 0.0004
vn 0.0980 0.9950 -0.0182
vn 0.4426 0.7185 -0.5365
vn 0.0002 1.0000 0.0006
vn -0.1295 0.9080 -0.3984
vn -0.3002 0.7959 -0.5258
vn 0.0025 1.0000 -0.0000
vn -0.3051 0.9523 -0.0000
vn -0.2646 0.9643 -0.0120
vn 0.0008 1.0000 -0.0024
vn -0.2144 0.7201 0.6599
vn -0.0318 0.4344 0.9001
vn -0.0020 1.0000 -0.0015
vn 0.5643 0.7166 0.4100
vn 0.9198 0.2653 0.2892
vn 0.4845 0.8735 0.0470
vn 0.5392 0.8135 -0.2178
vn 0.1655 0.8893 -0.4263
vn 0.1519 0.8984 -0.4122
vn 0.0311 0.8901 -0.4548
vn -0.1447 0.9751 -0.1681
vn -0.0930 0.9942 -0.0533
vn -0.4024 0.9151 -0.0245
vn -0.3780 0.9256 -0.0177
vn 0.0457 0.9987 -0.0242
vn 0.2388 0.9370 0.2549
vn -0.0723 0.9265 0.3693
vn 0.1387 0.9903 -0.0111
vn 0.1675 0.9858 -0.0080
vn 0.1922 0.9781 0.0802
vn 0.1648 0.8907 -0.4237
vn 0.1826 0.8704 -0.4573
vn 0.1626 0.8651 -0.4746
vn -0.0688 0.9866 -0.1479
vn -0.4777 0.7622 -0.4369
vn -0.7341 0.6637 -0.1436
vn -0.4436 0.8127 0.3779
vn -0.4636 0.7884 0.4044
vn -0.4709 0.7989 0.3742
vn -0.2195 0.9092 0.3538
vn -0.1624 0.7244 0.6700
vn 0.2708 0.7193 0.6398
vn 0.2881 0.9575 0.0144
vn 0.4688 0.8830 0.0235
vn 0.4702 0.8824 0.0182
vn 0.5160 0.0560 -0.8548
vn 0.1684 -0.8385 -0.5182
vn 0.0850 0.0560 -0.9948
vn -0.6535 0.0560 -0.7549
vn -0.2637 -0.9601 -0.0927
vn -0.9873 0.0601 -0.1470
vn -0.9199 0.0560 0.3882
vn -0.4408 -0.8385 0.3203
vn -0.6535 0.0560 0.7549
vn 0.9724 0.0560 -0.2266
vn 0.5449 -0.8385 -0.0000
vn -0.0025 -1.0000 -0.0000
vn 0.0850 0.0560 0.9948
vn 0.1684 -0.8385 0.5182
vn 0.5160 0.0560 0.8548
vt 0.181819 0.000000
vt 0.909091 0.000000
vt 0.727273 0.000000
vt 0.545455 0.000000
vt 0.363637 0.000000
vt 0.272728 0.157461
vt 1.000000 0.157461
vt 0.090910 0.157461
vt 0.818182 0.157461
vt 0.636364 0.157461
vt 0.454546 0.157461
vt 0.181819 0.314921
vt 0.000000 0.314921
vt 0.909091 0.314921
vt 0.727273 0.314921
vt 0.545455 0.314921
vt 0.363637 0.314921
vt 0.454546 0.472382
vt 0.636364 0.472382
vt 0.818182 0.472382
vt 0.090910 0.472382
vt 0.272728 0.472382
vt 0.954545 0.078731
vt 0.136365 0.078731
vt 0.318182 0.078731
vt 0.227273 0.078731
vt 0.181819 0.157461
vt 0.363637 0.157461
vt 0.500000 0.078731
vt 0.409092 0.078731
vt 0.772727 0.078731
vt 0.863636 0.078731
vt 0.909091 0.157461
vt 0.590909 0.078731
vt 0.681818 0.078731
vt 0.727273 0.157461
vt 0.545455 0.157461
vt 0.318182 0.236191
vt 0.409092 0.236191
vt 0.136365 0.236191
vt 0.227273 0.236191
vt 0.863636 0.236191
vt 0.045455 0.236191
vt 0.954545 0.236191
vt 0.681818 0.236191
vt 0.772727 0.236191
vt 0.500000 0.236191
vt 0.590909 0.236191
vt 0.272728 0.314921
vt 0.090910 0.314921
vt 0.818182 0.314921
vt 0.636364 0.314921
vt 0.454546 0.314921
vt 0.136365 0.393651
vt 0.227273 0.393651
vt 0.409092 0.393651
vt 0.318182 0.393651
vt 0.863636 0.393651
vt 0.045455 0.393651
vt 0.681818 0.393651
vt 0.772727 0.393651
vt 0.500000 0.393651
vt 0.590909 0.393651
s 0
f 1/1/1 14/26/1 13/24/1
f 2/6/2 14/25/2 16/28/2
f 1/2/3 13/23/3 18/32/3
f 1/3/4 18/31/4 20/35/4
f 1/4/5 20/34/5 17/29/5
f 2/6/6 16/28/6 23/38/6
f 3/8/7 15/27/7 25/40/7
f 4/9/8 19/33/8 27/42/8
f 5/10/9 21/36/9 29/45/9
f 6/11/10 22/37/10 31/47/10
f 2/6/11 23/38/11 26/41/11
f 3/8/12 25/40/12 28/43/12
f 4/9/13 27/42/13 30/46/13
f 5/10/14 29/45/14 32/48/14
f 6/11/15 31/47/15 24/39/15
f 7/12/16 33/49/16 38/55/16
f 8/13/17 34/50/17 40/59/17
f 9/15/18 35/51/18 41/61/18
f 10/16/19 36/52/19 42/63/19
f 11/17/20 37/53/20 39/56/20
f 39/56/21 42/62/21 12/18/21
f 39/56/22 37/53/22 42/62/22
f 37/53/23 10/16/23 42/62/23
f 42/63/24 41/60/24 12/19/24
f 42/63/25 36/52/25 41/60/25
f 36/52/26 9/15/26 41/60/26
f 41/61/27 40/58/27 12/20/27
f 41/61/28 35/51/28 40/58/28
f 35/51/29 8/14/29 40/58/29
f 40/59/30 38/54/30 12/21/30
f 40/59/31 34/50/31 38/54/31
f 34/50/32 7/12/32 38/54/32
f 38/55/33 39/57/33 12/22/33
f 38/55/34 33/49/34 39/57/34
f 33/49/35 11/17/35 39/57/35
f 24/39/36 37/53/36 11/17/36
f 24/39/37 31/47/37 37/53/37
f 31/47/38 10/16/38 37/53/38
f 32/48/39 36/52/39 10/16/39
f 32/48/40 29/45/40 36/52/40
f 29/45/41 9/15/41 36/52/41
f 30/46/42 35/51/42 9/15/42
f 30/46/43 27/42/43 35/51/43
f 27/42/44 8/14/44 35/51/44
f 28/43/45 34/50/45 8/13/45
f 28/43/46 25/40/46 34/50/46
f 25/40/47 7/12/47 34/50/47
f 26/41/48 33/49/48 7/12/48
f 26/41/49 23/38/49 33/49/49
f 23/38/50 11/17/50 33/49/50
f 31/47/51 32/48/51 10/16/51
f 31/47/52 22/37/52 32/48/52
f 22/37/53 5/10/53 32/48/53
f 29/45/54 30/46/54 9/15/54
f 29/45/55 21/36/55 30/46/55
f 21/36/56 4/9/56 30/46/56
f 27/42/57 28/44/57 8/14/57
f 27/42/58 19/33/58 28/44/58
f 19/33/59 3/7/59 28/44/59
f 25/40/60 26/41/60 7/12/60
f 25/40/61 15/27/61 26/41/61
f 15/27/62 2/6/62 26/41/62
f 23/38/63 24/39/63 11/17/63
f 23/38/64 16/28/64 24/39/64
f 16/28/65 6/11/65 24/39/65
f 17/29/66 22/37/66 6/11/66
f 17/29/67 20/34/67 22/37/67
f 20/34/68 5/10/68 22/37/68
f 20/35/69 21/36/69 5/10/69
f 20/35/70 18/31/70 21/36/70
f 18/31/71 4/9/71 21/36/71
f 18/32/72 19/33/72 4/9/72
f 18/32/73 13/23/73 19/33/73
f 13/23/74 3/7/74 19/33/74
f 16/28/75 17/30/75 6/11/75
f 16/28/76 14/25/76 17/30/76
f 14/25/77 1/5/77 17/30/77
f 13/24/78 15/27/78 3/8/78
f 13/24/79 14/26/79 15/27/79
f 14/26/80 2/6/80 15/27/80
