# Blender 3.4.1
# www.blender.org
mtllib БУЛЫГА КАМЕНЬ ВЫСОКИЙN1.mtl
o Икосфера
v -0.000030 -10.905619 0.000000
v 15.702770 -5.751655 11.721750
v -3.554604 -6.908861 17.885241
v -19.630962 -6.054142 2.794462
v -3.554604 -5.751658 -20.951090
v 15.427730 -3.960513 -12.266221
v 3.554604 3.488980 10.940132
v -9.306255 5.751655 6.761311
v -9.306255 5.751655 -10.013421
v 3.554604 5.751658 -15.101787
v 21.910482 5.751604 0.000000
v 0.000000 16.700735 0.000000
v -8.712787 -10.945239 26.815557
v 22.810717 -10.945226 16.572783
v 3.380735 -6.761470 18.740301
v 21.646992 -6.761447 0.000000
v 22.810717 -10.945226 -16.572783
v -28.195772 -10.945091 0.000000
v -17.930220 -6.761451 6.430420
v -8.712787 -10.945239 -26.815557
v -16.016407 -4.542410 -11.184450
v 3.380735 -6.761470 -17.106848
v 19.726547 0.000000 6.512883
v 20.359442 0.000000 -6.624224
v 0.000000 0.000000 12.860919
v 7.559464 0.000000 10.404699
v -12.231479 0.000000 3.974187
v -7.559464 0.000000 10.404699
v -7.559464 0.000000 -15.317986
v -16.137094 0.000000 -3.974187
v 7.559464 0.000000 -13.816478
v 0.000000 0.000000 -16.617136
v 11.448380 6.761451 8.845973
v -3.380735 6.761470 13.970353
v -13.600566 6.761447 0.000000
v -3.380735 6.761470 -15.006436
v 12.344679 6.761451 -10.871486
v 2.089328 14.001960 12.101764
v 16.178011 14.958504 0.000000
v -9.457449 10.940195 3.974171
v -9.643859 10.940195 -3.974171
v 2.089328 15.250442 -14.983637
vn -0.0005 -1.0000 -0.0017
vn 0.4977 0.8486 0.1793
vn 0.0014 -1.0000 -0.0010
vn 0.0014 -1.0000 0.0010
vn -0.0005 -1.0000 0.0017
vn 0.8682 -0.1936 0.4569
vn -0.1089 0.6207 0.7764
vn -0.6143 0.6695 0.4176
vn -0.5564 0.3504 -0.7534
vn 0.3089 0.2550 -0.9163
vn 0.2555 0.5447 0.7988
vn -0.2354 0.6479 0.7244
vn -0.6311 0.7110 0.3101
vn -0.1292 0.6465 -0.7519
vn 0.4141 0.5342 -0.7370
vn 0.2815 -0.0665 0.9572
vn -0.7587 0.2910 0.5829
vn -0.8246 0.4055 -0.3945
vn -0.0122 0.0106 -0.9999
vn 0.6961 0.4334 -0.5723
vn 0.1067 0.9910 -0.0810
vn 0.6410 0.4870 -0.5932
vn 0.4252 0.0768 -0.9018
vn -0.4611 0.8747 -0.1490
vn -0.6936 0.4485 -0.5637
vn -0.5699 0.6072 -0.5536
vn -0.5164 0.8562 0.0121
vn -0.7180 0.6959 0.0168
vn -0.7942 0.2694 0.5447
vn -0.4175 0.8689 0.2659
vn -0.5663 0.5792 0.5864
vn 0.3804 -0.0490 0.9235
vn 0.1049 0.9743 0.1992
vn 0.5729 0.4255 0.7006
vn 0.6174 0.3844 0.6863
vn 0.6869 0.4615 -0.5615
vn 0.4896 0.0330 -0.8713
vn 0.4231 0.0932 -0.9013
vn 0.0219 0.2420 -0.9700
vn -0.1675 0.1484 -0.9746
vn -0.6261 0.4173 -0.6587
vn -0.7691 0.5128 -0.3815
vn -0.8948 0.0773 0.4397
vn -0.8235 0.1542 0.5460
vn -0.7738 0.1542 0.6144
vn -0.2951 -0.2966 0.9083
vn 0.4249 0.0643 0.9030
vn 0.2164 0.0994 0.9712
vn 0.3044 0.0443 0.9515
vn 0.5871 0.4989 0.6375
vn 0.3472 0.0323 -0.9372
vn 0.3377 0.2349 -0.9115
vn 0.4952 0.3065 -0.8129
vn -0.7610 0.2996 -0.5754
vn -0.5823 0.6834 -0.4403
vn -0.9296 0.3046 -0.2074
vn -0.8026 0.1256 0.5831
vn -0.6027 0.6671 0.4379
vn -0.5568 0.4400 0.7045
vn 0.3025 0.2044 0.9310
vn 0.2205 0.7005 0.6788
vn 0.3402 0.6396 0.6893
vn 0.9500 -0.3089 0.0458
vn 0.9718 0.2309 0.0468
vn 0.8132 -0.3209 -0.4856
vn 0.1572 0.6334 -0.7577
vn 0.1872 0.7957 -0.5760
vn 0.4888 0.3936 -0.7785
vn -0.2930 0.8290 -0.4764
vn -0.7201 0.4558 -0.5232
vn -0.4878 0.8724 -0.0318
vn -0.5494 0.7337 0.3997
vn -0.5492 0.7343 0.3990
vn -0.2229 0.9302 0.2917
vn 0.6330 0.7600 -0.1474
vn 0.9634 0.2680 -0.0000
vn -0.0017 -1.0000 -0.0000
vn -0.0663 0.9231 0.3789
vn 0.2249 0.6858 0.6921
vn 0.2346 0.8154 0.5292
vt 0.181819 0.000000
vt 0.909091 0.000000
vt 0.727273 0.000000
vt 0.545455 0.000000
vt 0.363637 0.000000
vt 0.272728 0.157461
vt 1.000000 0.157461
vt 0.090910 0.157461
vt 0.818182 0.157461
vt 0.636364 0.157461
vt 0.454546 0.157461
vt 0.181819 0.314921
vt 0.000000 0.314921
vt 0.909091 0.314921
vt 0.727273 0.314921
vt 0.545455 0.314921
vt 0.363637 0.314921
vt 0.454546 0.472382
vt 0.636364 0.472382
vt 0.818182 0.472382
vt 0.090910 0.472382
vt 0.272728 0.472382
vt 0.954545 0.078731
vt 0.136365 0.078731
vt 0.318182 0.078731
vt 0.227273 0.078731
vt 0.181819 0.157461
vt 0.363637 0.157461
vt 0.500000 0.078731
vt 0.409092 0.078731
vt 0.772727 0.078731
vt 0.863636 0.078731
vt 0.909091 0.157461
vt 0.590909 0.078731
vt 0.681818 0.078731
vt 0.727273 0.157461
vt 0.545455 0.157461
vt 0.318182 0.236191
vt 0.409092 0.236191
vt 0.136365 0.236191
vt 0.227273 0.236191
vt 0.863636 0.236191
vt 0.045455 0.236191
vt 0.954545 0.236191
vt 0.681818 0.236191
vt 0.772727 0.236191
vt 0.500000 0.236191
vt 0.590909 0.236191
vt 0.272728 0.314921
vt 0.090910 0.314921
vt 0.818182 0.314921
vt 0.636364 0.314921
vt 0.454546 0.314921
vt 0.136365 0.393651
vt 0.227273 0.393651
vt 0.409092 0.393651
vt 0.318182 0.393651
vt 0.863636 0.393651
vt 0.045455 0.393651
vt 0.681818 0.393651
vt 0.772727 0.393651
vt 0.500000 0.393651
vt 0.590909 0.393651
s 0
f 1/1/1 14/26/1 13/24/1
f 2/6/2 14/25/2 16/28/2
f 1/2/3 13/23/3 18/32/3
f 1/3/4 18/31/4 20/35/4
f 1/4/5 20/34/5 17/29/5
f 2/6/6 16/28/6 23/38/6
f 3/8/7 15/27/7 25/40/7
f 4/9/8 19/33/8 27/42/8
f 5/10/9 21/36/9 29/45/9
f 6/11/10 22/37/10 31/47/10
f 2/6/11 23/38/11 26/41/11
f 3/8/12 25/40/12 28/43/12
f 4/9/13 27/42/13 30/46/13
f 5/10/14 29/45/14 32/48/14
f 6/11/15 31/47/15 24/39/15
f 7/12/16 33/49/16 38/55/16
f 8/13/17 34/50/17 40/59/17
f 9/15/18 35/51/18 41/61/18
f 10/16/19 36/52/19 42/63/19
f 11/17/20 37/53/20 39/56/20
f 39/56/21 42/62/21 12/18/21
f 39/56/22 37/53/22 42/62/22
f 37/53/23 10/16/23 42/62/23
f 42/63/24 41/60/24 12/19/24
f 42/63/25 36/52/25 41/60/25
f 36/52/26 9/15/26 41/60/26
f 41/61/27 40/58/27 12/20/27
f 41/61/28 35/51/28 40/58/28
f 35/51/29 8/14/29 40/58/29
f 40/59/30 38/54/30 12/21/30
f 40/59/31 34/50/31 38/54/31
f 34/50/32 7/12/32 38/54/32
f 38/55/33 39/57/33 12/22/33
f 38/55/34 33/49/34 39/57/34
f 33/49/35 11/17/35 39/57/35
f 24/39/36 37/53/36 11/17/36
f 24/39/37 31/47/37 37/53/37
f 31/47/38 10/16/38 37/53/38
f 32/48/39 36/52/39 10/16/39
f 32/48/40 29/45/40 36/52/40
f 29/45/41 9/15/41 36/52/41
f 30/46/42 35/51/42 9/15/42
f 30/46/43 27/42/43 35/51/43
f 27/42/44 8/14/44 35/51/44
f 28/43/45 34/50/45 8/13/45
f 28/43/46 25/40/46 34/50/46
f 25/40/47 7/12/47 34/50/47
f 26/41/48 33/49/48 7/12/48
f 26/41/49 23/38/49 33/49/49
f 23/38/50 11/17/50 33/49/50
f 31/47/51 32/48/51 10/16/51
f 31/47/52 22/37/52 32/48/52
f 22/37/53 5/10/53 32/48/53
f 29/45/54 30/46/54 9/15/54
f 29/45/55 21/36/55 30/46/55
f 21/36/56 4/9/56 30/46/56
f 27/42/57 28/44/57 8/14/57
f 27/42/58 19/33/58 28/44/58
f 19/33/59 3/7/59 28/44/59
f 25/40/60 26/41/60 7/12/60
f 25/40/61 15/27/61 26/41/61
f 15/27/62 2/6/62 26/41/62
f 23/38/63 24/39/63 11/17/63
f 23/38/64 16/28/64 24/39/64
f 16/28/65 6/11/65 24/39/65
f 17/29/66 22/37/66 6/11/66
f 17/29/67 20/34/67 22/37/67
f 20/34/68 5/10/68 22/37/68
f 20/35/69 21/36/69 5/10/69
f 20/35/70 18/31/70 21/36/70
f 18/31/71 4/9/71 21/36/71
f 18/32/72 19/33/72 4/9/72
f 18/32/73 13/23/73 19/33/73
f 13/23/74 3/7/74 19/33/74
f 16/28/75 17/30/75 6/11/75
f 16/28/76 14/25/76 17/30/76
f 14/25/77 1/5/77 17/30/77
f 13/24/78 15/27/78 3/8/78
f 13/24/79 14/26/79 15/27/79
f 14/26/80 2/6/80 15/27/80
