# Blender 3.4.1
# www.blender.org
mtllib Булыга широкая.mtl
o Икосфера
v 0.000000 0.416231 10.746534
v 4.504840 2.431843 12.922148
v -1.335521 2.431842 16.304590
v -6.640255 1.833066 -6.768030
v -3.750999 2.431842 -14.325996
v 5.370958 2.431843 -10.649721
v 1.335521 6.753819 16.304590
v -6.840248 6.753818 14.734541
v -3.496507 6.753818 -11.507928
v 1.335521 6.753819 -13.077977
v 6.196364 6.753799 -5.937881
v 0.000000 9.424881 -5.937881
v -0.784994 0.482425 17.115095
v 2.055181 0.482426 14.682489
v 1.270195 2.052440 16.103395
v 4.919468 1.453652 -6.768030
v 2.055181 0.482426 -11.520626
v -2.540353 0.482439 10.746534
v -5.924525 2.052446 14.610221
v -0.784994 0.482425 -13.953234
v -5.740844 2.052446 -12.631627
v 1.270195 2.052440 -14.342747
v 4.867781 3.504110 11.237754
v 6.470012 4.592831 -11.708780
v 0.000000 4.592831 17.026260
v 2.840210 4.592831 16.103420
v -7.194719 3.504110 14.115824
v -6.370988 4.592831 16.103420
v -5.255688 4.592831 -14.124825
v -7.011038 4.592831 -11.708780
v 4.714662 4.592831 -14.124825
v 0.000000 4.592831 -15.047667
v 3.325366 7.133215 14.610221
v -1.270195 7.133222 16.103395
v -5.553504 7.133213 -5.937881
v -1.270195 7.133222 -12.876782
v 3.325366 7.133215 -11.383608
v 0.784994 8.703236 14.610212
v 2.540353 8.703222 -5.937881
v -2.055181 8.703235 9.645494
v -2.055181 8.703235 -10.460755
v 0.784994 8.703236 -11.383599
vn 0.0100 -0.9999 0.0116
vn 0.6442 -0.7631 0.0515
vn -0.0261 -0.9996 0.0072
vn -0.0261 -0.9997 -0.0019
vn 0.0024 -1.0000 -0.0028
vn 0.9616 -0.2724 0.0338
vn 0.0247 -0.3304 0.9435
vn -0.7576 -0.6520 0.0321
vn -0.5746 -0.3304 -0.7488
vn 0.5287 -0.6724 -0.5180
vn 0.9177 0.2146 0.3344
vn -0.1393 -0.2351 0.9619
vn -0.9875 -0.1571 -0.0136
vn -0.1729 -0.0287 -0.9845
vn 0.6629 -0.5732 -0.4816
vn 0.4089 0.6617 0.6284
vn -0.1266 0.9602 0.2488
vn -0.6840 0.6658 -0.2980
vn 0.0385 0.6617 -0.7488
vn 0.4625 0.8674 -0.1834
vn 0.2722 0.9582 -0.0877
vn 0.5183 0.8387 -0.1671
vn 0.4089 0.6617 -0.6284
vn -0.0447 0.9895 -0.1376
vn -0.1876 0.7947 -0.5773
vn -0.4713 0.6617 -0.5831
vn -0.3313 0.9435 -0.0000
vn -0.4094 0.9123 -0.0000
vn -0.3836 0.9235 -0.0069
vn -0.0656 0.9971 0.0375
vn -0.4583 0.8493 0.2622
vn 0.0385 0.6617 0.7488
vn 0.2732 0.9617 0.0233
vn 0.5252 0.8498 0.0449
vn 0.4699 0.8813 0.0494
vn 0.5908 0.7644 -0.2582
vn 0.5506 0.7327 -0.4000
vn 0.3220 0.7702 -0.5506
vn 0.0382 0.6601 -0.7502
vn -0.1380 0.6027 -0.7860
vn -0.3940 0.8210 -0.4132
vn -0.4984 0.8329 -0.2408
vn -0.8804 0.4740 0.0137
vn -0.9911 0.1194 -0.0595
vn -0.2399 0.4818 0.8428
vn -0.1378 0.2766 0.9511
vn -0.0247 0.3304 0.9435
vn 0.5746 0.3304 0.7488
vn 0.9256 0.0441 0.3758
vn 0.9499 0.2853 0.1275
vn 0.1518 0.6130 -0.7754
vn 0.1892 -0.1736 -0.9665
vn -0.0242 -0.2785 -0.9601
vn -0.4769 0.8078 -0.3465
vn -0.7947 -0.1876 -0.5773
vn -0.9050 -0.3967 -0.1537
vn -0.9293 0.0313 0.3680
vn -0.7161 -0.4429 0.5394
vn -0.2569 -0.5229 0.8128
vn 0.3066 0.1256 0.9435
vn 0.3035 -0.1876 0.9342
vn 0.6635 -0.4101 0.6258
vn 0.9963 -0.0529 0.0671
vn 0.9226 -0.3829 0.0463
vn 0.8889 -0.4580 -0.0120
vn 0.5303 -0.6696 -0.5200
vn 0.4509 -0.7208 -0.5264
vn -0.0196 -0.2165 -0.9761
vn -0.3826 -0.6978 -0.6055
vn -0.3072 -0.9514 -0.0218
vn -0.1018 -0.9934 -0.0528
vn -0.3992 -0.9166 0.0228
vn -0.3314 -0.9391 0.0913
vn -0.3530 0.2724 0.8951
vn 0.5299 -0.8349 -0.1488
vn 0.3211 -0.9470 -0.0000
vn 0.0322 -0.9995 -0.0000
vn 0.1296 0.4117 0.9021
vn 0.6116 -0.3405 0.7141
vn 0.6921 -0.2625 0.6724
vt 0.181819 0.000000
vt 0.909091 0.000000
vt 0.727273 0.000000
vt 0.545455 0.000000
vt 0.363637 0.000000
vt 0.272728 0.157461
vt 1.000000 0.157461
vt 0.090910 0.157461
vt 0.818182 0.157461
vt 0.636364 0.157461
vt 0.454546 0.157461
vt 0.181819 0.314921
vt 0.000000 0.314921
vt 0.909091 0.314921
vt 0.727273 0.314921
vt 0.545455 0.314921
vt 0.363637 0.314921
vt 0.454546 0.472382
vt 0.636364 0.472382
vt 0.818182 0.472382
vt 0.090910 0.472382
vt 0.272728 0.472382
vt 0.954545 0.078731
vt 0.136365 0.078731
vt 0.318182 0.078731
vt 0.227273 0.078731
vt 0.181819 0.157461
vt 0.363637 0.157461
vt 0.500000 0.078731
vt 0.409092 0.078731
vt 0.772727 0.078731
vt 0.863636 0.078731
vt 0.909091 0.157461
vt 0.590909 0.078731
vt 0.681818 0.078731
vt 0.727273 0.157461
vt 0.545455 0.157461
vt 0.318182 0.236191
vt 0.409092 0.236191
vt 0.136365 0.236191
vt 0.227273 0.236191
vt 0.863636 0.236191
vt 0.045455 0.236191
vt 0.954545 0.236191
vt 0.681818 0.236191
vt 0.772727 0.236191
vt 0.500000 0.236191
vt 0.590909 0.236191
vt 0.272728 0.314921
vt 0.090910 0.314921
vt 0.818182 0.314921
vt 0.636364 0.314921
vt 0.454546 0.314921
vt 0.136365 0.393651
vt 0.227273 0.393651
vt 0.409092 0.393651
vt 0.318182 0.393651
vt 0.863636 0.393651
vt 0.045455 0.393651
vt 0.681818 0.393651
vt 0.772727 0.393651
vt 0.500000 0.393651
vt 0.590909 0.393651
s 0
f 1/1/1 14/26/1 13/24/1
f 2/6/2 14/25/2 16/28/2
f 1/2/3 13/23/3 18/32/3
f 1/3/4 18/31/4 20/35/4
f 1/4/5 20/34/5 17/29/5
f 2/6/6 16/28/6 23/38/6
f 3/8/7 15/27/7 25/40/7
f 4/9/8 19/33/8 27/42/8
f 5/10/9 21/36/9 29/45/9
f 6/11/10 22/37/10 31/47/10
f 2/6/11 23/38/11 26/41/11
f 3/8/12 25/40/12 28/43/12
f 4/9/13 27/42/13 30/46/13
f 5/10/14 29/45/14 32/48/14
f 6/11/15 31/47/15 24/39/15
f 7/12/16 33/49/16 38/55/16
f 8/13/17 34/50/17 40/59/17
f 9/15/18 35/51/18 41/61/18
f 10/16/19 36/52/19 42/63/19
f 11/17/20 37/53/20 39/56/20
f 39/56/21 42/62/21 12/18/21
f 39/56/22 37/53/22 42/62/22
f 37/53/23 10/16/23 42/62/23
f 42/63/24 41/60/24 12/19/24
f 42/63/25 36/52/25 41/60/25
f 36/52/26 9/15/26 41/60/26
f 41/61/27 40/58/27 12/20/27
f 41/61/28 35/51/28 40/58/28
f 35/51/29 8/14/29 40/58/29
f 40/59/30 38/54/30 12/21/30
f 40/59/31 34/50/31 38/54/31
f 34/50/32 7/12/32 38/54/32
f 38/55/33 39/57/33 12/22/33
f 38/55/34 33/49/34 39/57/34
f 33/49/35 11/17/35 39/57/35
f 24/39/36 37/53/36 11/17/36
f 24/39/37 31/47/37 37/53/37
f 31/47/38 10/16/38 37/53/38
f 32/48/39 36/52/39 10/16/39
f 32/48/40 29/45/40 36/52/40
f 29/45/41 9/15/41 36/52/41
f 30/46/42 35/51/42 9/15/42
f 30/46/43 27/42/43 35/51/43
f 27/42/44 8/14/44 35/51/44
f 28/43/45 34/50/45 8/13/45
f 28/43/46 25/40/46 34/50/46
f 25/40/47 7/12/47 34/50/47
f 26/41/48 33/49/48 7/12/48
f 26/41/49 23/38/49 33/49/49
f 23/38/50 11/17/50 33/49/50
f 31/47/51 32/48/51 10/16/51
f 31/47/52 22/37/52 32/48/52
f 22/37/53 5/10/53 32/48/53
f 29/45/54 30/46/54 9/15/54
f 29/45/55 21/36/55 30/46/55
f 21/36/56 4/9/56 30/46/56
f 27/42/57 28/44/57 8/14/57
f 27/42/58 19/33/58 28/44/58
f 19/33/59 3/7/59 28/44/59
f 25/40/60 26/41/60 7/12/60
f 25/40/61 15/27/61 26/41/61
f 15/27/62 2/6/62 26/41/62
f 23/38/63 24/39/63 11/17/63
f 23/38/64 16/28/64 24/39/64
f 16/28/65 6/11/65 24/39/65
f 17/29/66 22/37/66 6/11/66
f 17/29/67 20/34/67 22/37/67
f 20/34/68 5/10/68 22/37/68
f 20/35/69 21/36/69 5/10/69
f 20/35/70 18/31/70 21/36/70
f 18/31/71 4/9/71 21/36/71
f 18/32/72 19/33/72 4/9/72
f 18/32/73 13/23/73 19/33/73
f 13/23/74 3/7/74 19/33/74
f 16/28/75 17/30/75 6/11/75
f 16/28/76 14/25/76 17/30/76
f 14/25/77 1/5/77 17/30/77
f 13/24/78 15/27/78 3/8/78
f 13/24/79 14/26/79 15/27/79
f 14/26/80 2/6/80 15/27/80
